<mxfile host="app.diagrams.net" modified="2021-07-19T06:10:28.199Z" agent="5.0 (Windows NT 10.0; WOW64) AppleWebKit/537.36 (KHTML, like Gecko) Chrome/91.0.4472.114 Safari/537.36" etag="FBZzZXauiV7p-E88uRM6" version="14.8.4" type="github">
  <diagram id="aCC9Y-vIG2942EKSc-9j" name="Page-1">
    <mxGraphModel dx="2062" dy="1122" grid="1" gridSize="10" guides="1" tooltips="1" connect="1" arrows="1" fold="1" page="1" pageScale="1" pageWidth="827" pageHeight="1169" math="0" shadow="0">
      <root>
        <mxCell id="0" />
        <mxCell id="1" parent="0" />
        <mxCell id="6GiKJ_o0pHaUBKjUhXX5-1" value="" style="endArrow=classic;html=1;" edge="1" parent="1">
          <mxGeometry width="50" height="50" relative="1" as="geometry">
            <mxPoint x="80" y="640" as="sourcePoint" />
            <mxPoint x="560" y="640" as="targetPoint" />
          </mxGeometry>
        </mxCell>
        <mxCell id="6GiKJ_o0pHaUBKjUhXX5-2" value="" style="endArrow=classic;html=1;" edge="1" parent="1">
          <mxGeometry width="50" height="50" relative="1" as="geometry">
            <mxPoint x="120" y="700" as="sourcePoint" />
            <mxPoint x="120" y="270" as="targetPoint" />
          </mxGeometry>
        </mxCell>
        <mxCell id="6GiKJ_o0pHaUBKjUhXX5-4" value="" style="endArrow=none;html=1;strokeWidth=2;strokeColor=#FF6666;" edge="1" parent="1">
          <mxGeometry width="50" height="50" relative="1" as="geometry">
            <mxPoint x="530" y="620" as="sourcePoint" />
            <mxPoint x="160" y="320" as="targetPoint" />
            <Array as="points">
              <mxPoint x="410" y="620" />
              <mxPoint x="320" y="600" />
              <mxPoint x="280" y="560" />
              <mxPoint x="240" y="480" />
              <mxPoint x="200" y="430" />
            </Array>
          </mxGeometry>
        </mxCell>
        <mxCell id="6GiKJ_o0pHaUBKjUhXX5-5" value="&lt;font style=&quot;font-size: 23px&quot;&gt;1&lt;/font&gt;" style="text;html=1;align=center;verticalAlign=middle;resizable=0;points=[];autosize=1;strokeColor=none;" vertex="1" parent="1">
          <mxGeometry x="145" y="650" width="30" height="20" as="geometry" />
        </mxCell>
        <mxCell id="6GiKJ_o0pHaUBKjUhXX5-6" value="&lt;font style=&quot;font-size: 23px&quot;&gt;2&lt;/font&gt;" style="text;html=1;align=center;verticalAlign=middle;resizable=0;points=[];autosize=1;strokeColor=none;" vertex="1" parent="1">
          <mxGeometry x="190" y="650" width="30" height="20" as="geometry" />
        </mxCell>
        <mxCell id="6GiKJ_o0pHaUBKjUhXX5-7" value="&lt;font style=&quot;font-size: 23px&quot;&gt;3&lt;/font&gt;" style="text;html=1;align=center;verticalAlign=middle;resizable=0;points=[];autosize=1;strokeColor=none;" vertex="1" parent="1">
          <mxGeometry x="230" y="650" width="30" height="20" as="geometry" />
        </mxCell>
        <mxCell id="6GiKJ_o0pHaUBKjUhXX5-8" value="&lt;font style=&quot;font-size: 23px&quot;&gt;4&lt;/font&gt;" style="text;html=1;align=center;verticalAlign=middle;resizable=0;points=[];autosize=1;strokeColor=none;" vertex="1" parent="1">
          <mxGeometry x="270" y="650" width="30" height="20" as="geometry" />
        </mxCell>
        <mxCell id="6GiKJ_o0pHaUBKjUhXX5-9" value="&lt;font style=&quot;font-size: 23px&quot;&gt;5&lt;/font&gt;" style="text;html=1;align=center;verticalAlign=middle;resizable=0;points=[];autosize=1;strokeColor=none;" vertex="1" parent="1">
          <mxGeometry x="310" y="650" width="30" height="20" as="geometry" />
        </mxCell>
        <mxCell id="6GiKJ_o0pHaUBKjUhXX5-10" value="&lt;font style=&quot;font-size: 20px&quot;&gt;Kå€¼&lt;/font&gt;" style="text;html=1;align=center;verticalAlign=middle;resizable=0;points=[];autosize=1;strokeColor=none;" vertex="1" parent="1">
          <mxGeometry x="540" y="650" width="50" height="20" as="geometry" />
        </mxCell>
        <mxCell id="6GiKJ_o0pHaUBKjUhXX5-11" value="&lt;font style=&quot;font-size: 20px&quot;&gt;Loss&lt;/font&gt;" style="text;html=1;align=center;verticalAlign=middle;resizable=0;points=[];autosize=1;strokeColor=none;" vertex="1" parent="1">
          <mxGeometry x="50" y="270" width="60" height="20" as="geometry" />
        </mxCell>
      </root>
    </mxGraphModel>
  </diagram>
</mxfile>
